<?xml version="1.0" encoding="UTF-8"?><svg id="Calque_2" xmlns="http://www.w3.org/2000/svg" viewBox="0 0 176.53 176.53"><defs><style>.cls-1{fill:#fff;stroke-width:0px;}</style></defs><g id="Calque_1-2"><path class="cls-1" d="m143.43,0c9.12,0,16.91,3.24,23.39,9.71,6.47,6.47,9.71,14.27,9.71,23.39v110.33c0,9.12-3.24,16.91-9.71,23.39s-14.27,9.71-23.39,9.71h-21.61v-68.38h22.87l3.45-26.66h-26.32v-17.01c0-4.29.9-7.51,2.7-9.65s5.31-3.22,10.52-3.22l14.02-.11v-23.79c-4.83-.69-11.65-1.03-20.46-1.03-10.42,0-18.75,3.06-25,9.19-6.24,6.13-9.37,14.79-9.37,25.97v19.65h-22.99v26.66h22.99v68.38h-61.14c-9.12,0-16.91-3.24-23.39-9.71-6.47-6.47-9.71-14.27-9.71-23.39V33.1c0-9.12,3.24-16.91,9.71-23.39C16.19,3.24,23.98,0,33.1,0h110.33Z"/></g></svg>