<?xml version="1.0" encoding="UTF-8"?><svg id="Calque_2" xmlns="http://www.w3.org/2000/svg" viewBox="0 0 189.56 189.55"><defs><style>.cls-1{fill:#fff;stroke-width:0px;}</style></defs><g id="Calque_1-2"><g id="bGLypL"><path class="cls-1" d="m189.56,96.08c-.11,10.51-.15,22.2-.37,33.88-.16,8.35-1.15,16.6-3.83,24.58-4.73,14.12-14.31,23.68-27.82,29.5-6.15,2.65-12.62,4.3-19.29,4.65-9.21.49-18.44.76-27.66.82-15.65.1-31.31.01-46.97-.11-7.59-.06-15.16-.53-22.61-2.23-19.09-4.37-31.54-15.95-37.55-34.5-2.14-6.6-3.2-13.42-3.25-20.32C.04,108.97-.03,85.61,0,62.24c.01-7.98.69-15.94,2.81-23.7C7.75,20.56,19.37,9.07,37,3.46,44.17,1.18,51.6.26,59.08.2,80.31.04,101.53-.01,122.76,0c6.85,0,13.71.22,20.49,1.31,11.43,1.83,21.83,5.82,30.07,14.34,7.37,7.62,11.78,16.77,14.04,27.06,1.51,6.86,1.71,13.81,1.79,20.78.11,10.48.26,20.95.41,32.6Zm-16.93.05c0-4.52.01-9.03,0-13.55-.04-11.9.22-23.8-1.83-35.62-1.34-7.75-4.58-14.46-10.13-19.91-4.98-4.89-11.26-7.4-18.11-8.4-9.53-1.38-19.13-1.88-28.75-1.9-12.58-.03-25.16-.05-37.73,0-9.68.05-19.38-.04-28.96,1.81-3.37.65-6.68,1.38-9.8,2.85-10.79,5.06-16.91,13.58-18.71,25.27-1.22,7.9-1.72,15.87-1.85,23.85-.13,8.25-.12,16.51-.07,24.77.06,10.71.26,21.41.29,32.12.02,7.37.9,14.67,3.25,21.61,3.72,11,11.33,18.25,22.76,20.98,7.55,1.81,15.32,2.43,23.05,2.54,17.68.24,35.36.23,53.04.12,8.43-.05,16.88-.31,25.19-2.14,13.81-3.03,23.77-12.24,26.26-26.74,1.57-9.15,1.95-18.42,2.1-27.68.11-6.66.02-13.32.02-19.98Z"/><path class="cls-1" d="m94.18,143.46c-25.31.48-48.78-20.62-48.81-48.72-.02-24.98,20.3-48.75,48.91-48.86,28.4-.12,48.84,23.77,48.77,48.91-.07,25.4-20.8,49.12-48.87,48.68Zm0-17.29c17.6.4,32.05-14.63,31.96-31.4-.09-17.79-14.17-31.97-31.95-31.96-17.8,0-31.64,14.04-31.93,31.85-.29,17.99,15.68,31.99,31.91,31.51Z"/><path class="cls-1" d="m145.2,55.29c-5.94.02-11.57-5.58-11.57-11.51,0-5.92,5.65-11.57,11.56-11.55,5.89.02,11.47,5.58,11.51,11.47.05,5.91-5.57,11.57-11.5,11.59Z"/></g></g></svg>