<?xml version="1.0" encoding="UTF-8"?><svg id="Calque_2" xmlns="http://www.w3.org/2000/svg" viewBox="0 0 414.48 186.29"><defs><style>.cls-1{fill:#263e5e;stroke-width:0px;}</style></defs><g id="Calque_1-2"><path class="cls-1" d="m0,50.33v-25.11C0,10.4,10.09,0,24.4,0s24.39,10.4,24.39,25.22v25.11c0,11.94-6.69,21-16.78,23.68l8.44,13.9h-14.72l-7.62-13.59C7.21,71.95,0,62.79,0,50.33Zm24.4,11.32c5.35,0,10.19-2.68,10.19-13.17v-21.61c0-10.19-4.43-13.28-10.19-13.28-5.05,0-10.09,2.68-10.09,11.02v23.78c0,10.29,4.22,13.28,10.09,13.28Z"/><path class="cls-1" d="m59.22,49.92V1.34h14.21v49.1c0,8.03,4.53,11.01,10.09,11.01,5.25,0,10.19-2.98,10.19-11.01V1.34h14.21v48.58c0,15.44-10.09,25.01-24.4,25.01s-24.29-9.47-24.29-25.01Z"/><path class="cls-1" d="m135.41,1.34h15.54l21,72.57h-14.51l-3.81-14.31h-21.1l-4.01,14.31h-14.41L135.41,1.34Zm15.24,46.01l-7.41-28.41-7.72,28.41h15.13Z"/><path class="cls-1" d="m178.98,1.34h23.06c14.51,0,24.29,9.37,24.29,26.25v2.06c0,11.22-4.84,18.74-12.66,22.23l12.25,22.03h-15.54l-9.78-18.73h-7.41v18.73h-14.21V1.34Zm21.31,40.35c6.17,0,11.94-2.68,11.94-12.25v-2.06c0-9.99-5.56-12.45-11.94-12.45h-7.1v26.76h7.1Z"/><path class="cls-1" d="m248.08,15.03h-15.13V1.34h44.46v13.69h-15.13v58.88h-14.21V15.03Z"/><path class="cls-1" d="m285.78,1.34h14.21v72.57h-14.21V1.34Z"/><path class="cls-1" d="m314.1,1.34h40.76v13.69h-26.55v16.47h19.66v12.35h-19.66v16.47h26.55v13.59h-40.76V1.34Z"/><path class="cls-1" d="m365.9,1.34h23.06c14.51,0,24.29,9.37,24.29,26.25v2.06c0,11.22-4.84,18.74-12.66,22.23l12.25,22.03h-15.54l-9.78-18.73h-7.41v18.73h-14.21V1.34Zm21.31,40.35c6.17,0,11.94-2.68,11.94-12.25v-2.06c0-9.99-5.56-12.45-11.94-12.45h-7.1v26.76h7.1Z"/><path class="cls-1" d="m6.8,112.69h14.21v58.98h24.08v13.59H6.8v-72.57Z"/><path class="cls-1" d="m56.13,161.28v-24.7c0-14.82,9.99-25.22,24.4-25.22s24.39,10.4,24.39,25.22v24.7c0,14.72-10.09,25.01-24.39,25.01s-24.4-10.3-24.4-25.01Zm24.4,11.42c4.84,0,10.19-2.57,10.19-10.91v-25.73c0-8.13-4.84-11.12-10.19-11.12-5.05,0-10.09,2.68-10.09,11.02v25.73c0,8.13,4.74,11.01,10.09,11.01Z"/><path class="cls-1" d="m121.62,112.69h14.21v72.57h-14.21v-72.57Z"/><path class="cls-1" d="m154.68,112.69h13.38l21.31,42.2v-42.2h14.31v72.57h-13.38l-21.41-41.99v41.99h-14.21v-72.57Z"/><path class="cls-1" d="m232.33,126.38h-15.13v-13.69h44.46v13.69h-15.13v58.88h-14.21v-58.88Z"/><path class="cls-1" d="m283.61,112.69h15.54l21,72.57h-14.51l-3.81-14.31h-21.1l-4.01,14.31h-14.41l21.3-72.57Zm15.24,46.01l-7.41-28.41-7.72,28.41h15.13Z"/><path class="cls-1" d="m332.43,112.69h14.21v72.57h-14.21v-72.57Z"/><path class="cls-1" d="m365.49,112.69h13.38l21.31,42.2v-42.2h14.31v72.57h-13.38l-21.41-41.99v41.99h-14.21v-72.57Z"/></g></svg>